<?xml version="1.0" encoding="UTF-8"?>
<!DOCTYPE svg PUBLIC "-//W3C//DTD SVG 1.1//EN" "http://www.w3.org/Graphics/SVG/1.1/DTD/svg11.dtd">
<svg xmlns="http://www.w3.org/2000/svg" version="1.1" width="686px" height="257px" style="shape-rendering:geometricPrecision; text-rendering:geometricPrecision; image-rendering:optimizeQuality; fill-rule:evenodd; clip-rule:evenodd" xmlns:xlink="http://www.w3.org/1999/xlink">
<g><path style="opacity:0.8" fill="#5d7581" d="M 3.5,-0.5 C 229.5,-0.5 455.5,-0.5 681.5,-0.5C 681.5,-0.166667 681.5,0.166667 681.5,0.5C 681.833,1.5 682.5,2.16667 683.5,2.5C 684.338,2.84171 684.672,3.50838 684.5,4.5C 684.828,88.2077 684.494,171.874 683.5,255.5C 683.5,255.833 683.5,256.167 683.5,256.5C 457.167,256.5 230.833,256.5 4.5,256.5C 4.02694,255.094 3.02694,254.427 1.5,254.5C 0.505521,170.874 0.172187,87.2077 0.5,3.5C 1.83333,2.83333 2.83333,1.83333 3.5,0.5C 3.5,0.166667 3.5,-0.166667 3.5,-0.5 Z"/></g>
<g><path style="opacity:0.004" fill="#eef1f2" d="M 681.5,0.5 C 682.833,0.5 683.5,1.16667 683.5,2.5C 682.5,2.16667 681.833,1.5 681.5,0.5 Z"/></g>
<g><path style="opacity:0.408" fill="#c8d1d4" d="M 3.5,0.5 C 2.83333,1.83333 1.83333,2.83333 0.5,3.5C 0.5,1.5 1.5,0.5 3.5,0.5 Z"/></g>
<g><path style="opacity:0.254" fill="#d0d7da" d="M -0.5,3.5 C -0.166667,3.5 0.166667,3.5 0.5,3.5C 0.172187,87.2077 0.505521,170.874 1.5,254.5C 0.833333,254.167 0.166667,253.833 -0.5,253.5C -0.5,170.167 -0.5,86.8333 -0.5,3.5 Z"/></g>
<g><path style="opacity:0.8" fill="#f2fef0" d="M 49.5,20.5 C 245.833,20.5 442.167,20.5 638.5,20.5C 644.167,20.5 649.833,20.5 655.5,20.5C 655.5,90.8333 655.5,161.167 655.5,231.5C 548.999,231.167 442.665,231.501 336.5,232.5C 234.165,232.382 131.831,232.716 29.5,233.5C 29.5,162.5 29.5,91.5 29.5,20.5C 36.1667,20.5 42.8333,20.5 49.5,20.5 Z"/></g>
<g><path style="opacity:0.191" fill="#dde2e4" d="M 684.5,4.5 C 684.833,4.5 685.167,4.5 685.5,4.5C 685.5,87.8333 685.5,171.167 685.5,254.5C 684.833,254.833 684.167,255.167 683.5,255.5C 684.494,171.874 684.828,88.2077 684.5,4.5 Z"/></g>
<g><path style="opacity:0.727" fill="#d6e3db" d="M 49.5,20.5 C 42.8333,20.5 36.1667,20.5 29.5,20.5C 29.5,91.5 29.5,162.5 29.5,233.5C 28.5008,162.335 28.1675,91.0019 28.5,19.5C 35.6866,19.1755 42.6866,19.5088 49.5,20.5 Z"/></g>
<g><path style="opacity:0.724" fill="#6d828c" d="M 638.5,20.5 C 644.645,19.5098 650.978,19.1765 657.5,19.5C 657.833,90.6686 657.499,161.669 656.5,232.5C 656.833,161.665 656.499,90.998 655.5,20.5C 649.833,20.5 644.167,20.5 638.5,20.5 Z"/></g>
<g><path style="opacity:0.792" fill="#cad8d2" d="M 655.5,20.5 C 656.499,90.998 656.833,161.665 656.5,232.5C 549.833,232.5 443.167,232.5 336.5,232.5C 442.665,231.501 548.999,231.167 655.5,231.5C 655.5,161.167 655.5,90.8333 655.5,20.5 Z"/></g>
<g><path style="opacity:0.608" fill="#b9c3c7" d="M 1.5,254.5 C 3.02694,254.427 4.02694,255.094 4.5,256.5C 3.83333,256.5 3.16667,256.5 2.5,256.5C 2.16667,255.833 1.83333,255.167 1.5,254.5 Z"/></g>
</svg>
