<?xml version="1.0" encoding="UTF-8"?>
<!DOCTYPE svg PUBLIC "-//W3C//DTD SVG 1.1//EN" "http://www.w3.org/Graphics/SVG/1.1/DTD/svg11.dtd">
<svg xmlns="http://www.w3.org/2000/svg" version="1.1" width="357px" height="133px" style="shape-rendering:geometricPrecision; text-rendering:geometricPrecision; image-rendering:optimizeQuality; fill-rule:evenodd; clip-rule:evenodd" xmlns:xlink="http://www.w3.org/1999/xlink">
<g><path style="opacity:1" fill="#365461" d="M 1.5,-0.5 C 119.167,-0.5 236.833,-0.5 354.5,-0.5C 354.833,0.5 355.5,1.16667 356.5,1.5C 356.5,44.8333 356.5,88.1667 356.5,131.5C 355.833,131.5 355.5,131.833 355.5,132.5C 237.167,132.5 118.833,132.5 0.5,132.5C 0.67158,131.508 0.338246,130.842 -0.5,130.5C -0.5,87.5 -0.5,44.5 -0.5,1.5C 0.5,1.16667 1.16667,0.5 1.5,-0.5 Z"/></g>
<g><path style="opacity:0.051" fill="#ced5d9" d="M 354.5,-0.5 C 355.167,-0.5 355.833,-0.5 356.5,-0.5C 356.5,0.166667 356.5,0.833333 356.5,1.5C 355.5,1.16667 354.833,0.5 354.5,-0.5 Z"/></g>
<g><path style="opacity:0.192" fill="#dce1e3" d="M -0.5,-0.5 C 0.166667,-0.5 0.833333,-0.5 1.5,-0.5C 1.16667,0.5 0.5,1.16667 -0.5,1.5C -0.5,0.833333 -0.5,0.166667 -0.5,-0.5 Z"/></g>
<g><path style="opacity:1" fill="#e6f4fc" d="M 68.5,44.5 C 71.1194,44.2317 73.6194,44.565 76,45.5C 80.3333,54.8333 84.6667,64.1667 89,73.5C 89.4998,63.8391 89.6665,54.1724 89.5,44.5C 91.1667,44.5 92.8333,44.5 94.5,44.5C 94.5,56.8333 94.5,69.1667 94.5,81.5C 92.396,81.7989 90.396,81.4656 88.5,80.5C 83.77,70.4918 78.9366,60.4918 74,50.5C 73.5002,60.828 73.3335,71.1613 73.5,81.5C 71.8333,81.5 70.1667,81.5 68.5,81.5C 68.5,69.1667 68.5,56.8333 68.5,44.5 Z"/></g>
<g><path style="opacity:1" fill="#e8f7fe" d="M 102.5,44.5 C 110.167,44.5 117.833,44.5 125.5,44.5C 125.5,45.8333 125.5,47.1667 125.5,48.5C 119.5,48.5 113.5,48.5 107.5,48.5C 107.5,52.1667 107.5,55.8333 107.5,59.5C 113.167,59.5 118.833,59.5 124.5,59.5C 124.5,60.8333 124.5,62.1667 124.5,63.5C 118.833,63.5 113.167,63.5 107.5,63.5C 107.5,68.1667 107.5,72.8333 107.5,77.5C 113.5,77.5 119.5,77.5 125.5,77.5C 125.5,78.8333 125.5,80.1667 125.5,81.5C 117.833,81.5 110.167,81.5 102.5,81.5C 102.5,69.1667 102.5,56.8333 102.5,44.5 Z"/></g>
<g><path style="opacity:1" fill="#e4f2fa" d="M 129.5,44.5 C 131.199,44.3398 132.866,44.5065 134.5,45C 137.128,49.758 140.128,54.258 143.5,58.5C 146.872,54.258 149.872,49.758 152.5,45C 164.495,44.5001 176.495,44.3335 188.5,44.5C 188.5,45.8333 188.5,47.1667 188.5,48.5C 184.167,48.5 179.833,48.5 175.5,48.5C 175.5,59.5 175.5,70.5 175.5,81.5C 173.833,81.5 172.167,81.5 170.5,81.5C 170.5,70.5 170.5,59.5 170.5,48.5C 165.678,49.0653 161.178,48.3987 157,46.5C 153.915,51.672 150.581,56.672 147,61.5C 146.333,62.5 146.333,63.5 147,64.5C 150.749,69.6622 154.249,74.9956 157.5,80.5C 155.926,81.6309 154.259,81.7975 152.5,81C 149.872,76.242 146.872,71.742 143.5,67.5C 140.169,71.4916 137.336,75.8249 135,80.5C 133.186,81.7596 131.353,81.7596 129.5,80.5C 133.048,74.566 136.715,68.7326 140.5,63C 136.439,57.042 132.773,50.8753 129.5,44.5 Z"/></g>
<g><path style="opacity:1" fill="#deedf5" d="M 245.5,45.5 C 256.931,50.3809 268.264,55.5476 279.5,61C 280.406,62.6995 280.739,64.5328 280.5,66.5C 268.927,71.2861 257.594,76.6194 246.5,82.5C 245.231,80.3052 245.231,78.1385 246.5,76C 255.167,72 263.833,68 272.5,64C 263.864,59.6822 255.198,55.3489 246.5,51C 245.594,49.3005 245.261,47.4672 245.5,45.5 Z"/></g>
<g><path style="opacity:1" fill="#e3f1f9" d="M 218.5,60.5 C 224.5,60.5 230.5,60.5 236.5,60.5C 236.5,62.5 236.5,64.5 236.5,66.5C 230.5,66.5 224.5,66.5 218.5,66.5C 218.5,64.5 218.5,62.5 218.5,60.5 Z"/></g>
</svg>
