<?xml version="1.0" encoding="UTF-8"?>
<!DOCTYPE svg PUBLIC "-//W3C//DTD SVG 1.1//EN" "http://www.w3.org/Graphics/SVG/1.1/DTD/svg11.dtd">
<svg xmlns="http://www.w3.org/2000/svg" version="1.1" width="953px" height="951px" style="shape-rendering:geometricPrecision; text-rendering:geometricPrecision; image-rendering:optimizeQuality; fill-rule:evenodd; clip-rule:evenodd" xmlns:xlink="http://www.w3.org/1999/xlink">
<g><path style="opacity:1" fill="#385663" d="M 766.5,-0.5 C 775.833,-0.5 785.167,-0.5 794.5,-0.5C 796.142,0.802988 797.809,2.13632 799.5,3.5C 800.08,5.74876 801.413,7.41543 803.5,8.5C 803.427,10.0269 804.094,11.0269 805.5,11.5C 806.434,12.5676 806.768,13.901 806.5,15.5C 806.41,18.1522 807.076,20.4855 808.5,22.5C 809.156,23.6216 809.489,24.9549 809.5,26.5C 807.259,83.4584 806.259,140.458 806.5,197.5C 849.706,198.844 893.039,200.177 936.5,201.5C 943.614,204.945 948.614,210.278 951.5,217.5C 951.5,218.167 951.833,218.5 952.5,218.5C 952.5,457.5 952.5,696.5 952.5,935.5C 951.833,935.5 951.5,935.833 951.5,936.5C 950.234,937.09 948.901,937.59 947.5,938C 944.513,943.826 940.179,947.993 934.5,950.5C 629.167,950.5 323.833,950.5 18.5,950.5C 17.791,949.596 16.791,949.263 15.5,949.5C 15.5,948.5 15.5,947.5 15.5,946.5C 11.8648,945.848 8.53149,944.514 5.5,942.5C 3.7401,939.311 2.2401,935.978 1,932.5C 0.333333,693.5 0.333333,454.5 1,215.5C 2.4844,208.189 6.65106,203.189 13.5,200.5C 179.313,199.839 344.979,199.172 510.5,198.5C 545.723,171.114 581.39,144.281 617.5,118C 666.872,77.9994 716.538,38.4994 766.5,-0.5 Z"/></g>
<g><path style="opacity:0.627" fill="#b0bbc1" d="M 799.5,3.5 C 801.587,4.58457 802.92,6.25124 803.5,8.5C 801.413,7.41543 800.08,5.74876 799.5,3.5 Z"/></g>
<g><path style="opacity:0.427" fill="#adb9be" d="M 803.5,8.5 C 804.906,8.97306 805.573,9.97306 805.5,11.5C 804.094,11.0269 803.427,10.0269 803.5,8.5 Z"/></g>
<g><path style="opacity:0.945" fill="#80929b" d="M 806.5,15.5 C 807.924,17.5145 808.59,19.8478 808.5,22.5C 807.076,20.4855 806.41,18.1522 806.5,15.5 Z"/></g>
<g><path style="opacity:0.702" fill="#f3fdf1" d="M 767.5,47.5 C 768.166,51.9876 768.499,56.6543 768.5,61.5C 767.644,116.197 766.477,170.863 765,225.5C 767.106,231.272 770.939,235.438 776.5,238C 821.832,238.5 867.165,238.667 912.5,238.5C 912.5,462.833 912.5,687.167 912.5,911.5C 621.833,911.5 331.167,911.5 40.5,911.5C 40.5,687.167 40.5,462.833 40.5,238.5C 203.5,238.667 366.5,238.5 529.5,238C 609.598,175.396 688.932,111.896 767.5,47.5 Z"/></g>
<g><path style="opacity:0.665" fill="#889ba1" d="M 510.5,198.5 C 344.979,199.172 179.313,199.839 13.5,200.5C 14.2625,199.732 15.2625,199.232 16.5,199C 181.166,198.5 345.833,198.333 510.5,198.5 Z"/></g>
<g><path style="opacity:0.659" fill="#899ca2" d="M 806.5,197.5 C 849.762,198.328 893.096,198.828 936.5,199C 937.737,199.232 938.737,199.732 939.5,200.5C 938.209,200.263 937.209,200.596 936.5,201.5C 893.039,200.177 849.706,198.844 806.5,197.5 Z"/></g>
<g><path style="opacity:0.941" fill="#637b84" d="M 936.5,201.5 C 937.209,200.596 938.209,200.263 939.5,200.5C 947.166,203.474 951.166,209.141 951.5,217.5C 948.614,210.278 943.614,204.945 936.5,201.5 Z"/></g>
<g><path style="opacity:0.941" fill="#627a83" d="M 951.5,936.5 C 949.277,942.721 945.277,947.387 939.5,950.5C 937.833,950.5 936.167,950.5 934.5,950.5C 940.179,947.993 944.513,943.826 947.5,938C 948.901,937.59 950.234,937.09 951.5,936.5 Z"/></g>
<g><path style="opacity:0.941" fill="#657d86" d="M 5.5,942.5 C 8.53149,944.514 11.8648,945.848 15.5,946.5C 15.5,947.5 15.5,948.5 15.5,949.5C 16.791,949.263 17.791,949.596 18.5,950.5C 17.1667,950.5 15.8333,950.5 14.5,950.5C 10.9056,948.576 7.90561,945.91 5.5,942.5 Z"/></g>
</svg>
