<?xml version="1.0" encoding="UTF-8"?>
<!DOCTYPE svg PUBLIC "-//W3C//DTD SVG 1.1//EN" "http://www.w3.org/Graphics/SVG/1.1/DTD/svg11.dtd">
<svg xmlns="http://www.w3.org/2000/svg" version="1.1" width="655px" height="664px" style="shape-rendering:geometricPrecision; text-rendering:geometricPrecision; image-rendering:optimizeQuality; fill-rule:evenodd; clip-rule:evenodd" xmlns:xlink="http://www.w3.org/1999/xlink">
<g><path style="opacity:0.851" fill="#546d79" d="M 569.5,108.5 C 569.427,110.027 570.094,111.027 571.5,111.5C 578.936,118.268 585.269,125.935 590.5,134.5C 590.427,136.027 591.094,137.027 592.5,137.5C 616.561,170.428 634.061,206.761 645,246.5C 648.901,262.832 652.067,279.165 654.5,295.5C 654.5,319.5 654.5,343.5 654.5,367.5C 639.258,480.226 582.925,565.393 485.5,623C 443.217,645.982 398.217,659.482 350.5,663.5C 334.5,663.5 318.5,663.5 302.5,663.5C 255.34,659.626 211.007,646.293 169.5,623.5C 169.027,622.094 168.027,621.427 166.5,621.5C 149.612,612.562 133.945,601.895 119.5,589.5C 119.027,588.094 118.027,587.427 116.5,587.5C 113.833,585.5 111.5,583.167 109.5,580.5C 109.027,579.094 108.027,578.427 106.5,578.5C 47.237,523.988 11.5704,456.655 -0.5,376.5C -0.5,346.833 -0.5,317.167 -0.5,287.5C 7.33907,232.293 27.6724,182.293 60.5,137.5C 61.9063,137.027 62.573,136.027 62.5,134.5C 67.7309,125.935 74.0643,118.268 81.5,111.5C 82.9063,111.027 83.573,110.027 83.5,108.5C 89.2807,100.93 95.9473,94.2635 103.5,88.5C 105.749,87.9202 107.415,86.5869 108.5,84.5C 163.261,34.6432 227.927,6.80991 302.5,1C 408.657,-4.47625 497.657,31.3571 569.5,108.5 Z"/></g>
<g><path style="opacity:0.498" fill="#9aa9af" d="M 307.5,41.5 C 428.31,39.3032 519.144,89.9699 580,193.5C 626.658,287.163 625.991,380.496 578,473.5C 531.735,553.055 463.235,601.555 372.5,619C 257.455,633.12 164.622,594.62 94,503.5C 33.5652,414.424 22.5652,319.424 61,218.5C 102.425,127.426 171.925,70.2594 269.5,47C 282.265,44.8196 294.931,42.9863 307.5,41.5 Z"/></g>
<g><path style="opacity:0.796" fill="#6e848d" d="M 108.5,84.5 C 107.415,86.5869 105.749,87.9202 103.5,88.5C 104.585,86.4131 106.251,85.0798 108.5,84.5 Z"/></g>
<g><path style="opacity:0.769" fill="#7a8e96" d="M 83.5,108.5 C 83.573,110.027 82.9063,111.027 81.5,111.5C 81.427,109.973 82.0937,108.973 83.5,108.5 Z"/></g>
<g><path style="opacity:0.769" fill="#7a8e96" d="M 569.5,108.5 C 570.906,108.973 571.573,109.973 571.5,111.5C 570.094,111.027 569.427,110.027 569.5,108.5 Z"/></g>
<g><path style="opacity:0.718" fill="#778b94" d="M 62.5,134.5 C 62.573,136.027 61.9063,137.027 60.5,137.5C 60.427,135.973 61.0937,134.973 62.5,134.5 Z"/></g>
<g><path style="opacity:0.718" fill="#778b94" d="M 590.5,134.5 C 591.906,134.973 592.573,135.973 592.5,137.5C 591.094,137.027 590.427,136.027 590.5,134.5 Z"/></g>
<g><path style="opacity:0.773" fill="#798d96" d="M 106.5,578.5 C 108.027,578.427 109.027,579.094 109.5,580.5C 107.973,580.573 106.973,579.906 106.5,578.5 Z"/></g>
<g><path style="opacity:0.702" fill="#798d95" d="M 116.5,587.5 C 118.027,587.427 119.027,588.094 119.5,589.5C 117.973,589.573 116.973,588.906 116.5,587.5 Z"/></g>
<g><path style="opacity:0.694" fill="#798d95" d="M 166.5,621.5 C 168.027,621.427 169.027,622.094 169.5,623.5C 167.973,623.573 166.973,622.906 166.5,621.5 Z"/></g>
</svg>
