<?xml version="1.0" encoding="UTF-8"?>
<!DOCTYPE svg PUBLIC "-//W3C//DTD SVG 1.1//EN" "http://www.w3.org/Graphics/SVG/1.1/DTD/svg11.dtd">
<svg xmlns="http://www.w3.org/2000/svg" version="1.1" width="950px" height="440px" style="shape-rendering:geometricPrecision; text-rendering:geometricPrecision; image-rendering:optimizeQuality; fill-rule:evenodd; clip-rule:evenodd" xmlns:xlink="http://www.w3.org/1999/xlink">
<g><path style="opacity:0.796" fill="#6d838c" d="M 10.5,-0.5 C 180.5,-0.5 350.5,-0.5 520.5,-0.5C 515.83,0.299749 510.996,0.966415 506,1.5C 343.124,1.41426 179.458,1.08093 15,0.5C 11.5385,2.60752 8.03847,4.77419 4.5,7C 2.95118,8.21398 1.78451,9.71398 1,11.5C 0.500001,151.5 0.333334,291.5 0.5,431.5C 0.166667,431.5 -0.166667,431.5 -0.5,431.5C -0.5,290.5 -0.5,149.5 -0.5,8.5C 2.29348,4.3676 5.96015,1.3676 10.5,-0.5 Z"/></g>
<g><path style="opacity:0.8" fill="#5d7581" d="M 520.5,-0.5 C 566.167,-0.5 611.833,-0.5 657.5,-0.5C 657.833,0.833333 658.167,0.833333 658.5,-0.5C 659.167,-0.5 659.833,-0.5 660.5,-0.5C 661.167,0.833333 661.833,0.833333 662.5,-0.5C 662.833,-0.5 663.167,-0.5 663.5,-0.5C 663.833,0.833333 664.167,0.833333 664.5,-0.5C 665.167,-0.5 665.833,-0.5 666.5,-0.5C 666.833,0.833333 667.167,0.833333 667.5,-0.5C 668.167,-0.5 668.833,-0.5 669.5,-0.5C 669.833,0.833333 670.167,0.833333 670.5,-0.5C 759.5,-0.5 848.5,-0.5 937.5,-0.5C 940.307,2.05136 943.64,3.71802 947.5,4.5C 948.167,4.83333 948.833,5.16667 949.5,5.5C 949.5,149.167 949.5,292.833 949.5,436.5C 948.128,437.512 946.795,438.512 945.5,439.5C 632.5,439.5 319.5,439.5 6.5,439.5C 6.5,439.167 6.5,438.833 6.5,438.5C 6.02694,437.094 5.02694,436.427 3.5,436.5C 2.07501,435.078 1.07501,433.411 0.5,431.5C 0.333334,291.5 0.500001,151.5 1,11.5C 1.78451,9.71398 2.95118,8.21398 4.5,7C 8.03847,4.77419 11.5385,2.60752 15,0.5C 179.458,1.08093 343.124,1.41426 506,1.5C 510.996,0.966415 515.83,0.299749 520.5,-0.5 Z"/></g>
<g><path style="opacity:0.788" fill="#a3b1b6" d="M 937.5,-0.5 C 938.5,-0.5 939.5,-0.5 940.5,-0.5C 943.009,0.921263 945.343,2.58793 947.5,4.5C 943.64,3.71802 940.307,2.05136 937.5,-0.5 Z"/></g>
<g><path style="opacity:0.8" fill="#f2fef0" d="M 39.5,36.5 C 330.166,37.8317 620.833,37.8317 911.5,36.5C 911.5,156.5 911.5,276.5 911.5,396.5C 660.166,396.476 408.832,396.976 157.5,398C 118.151,398.202 78.8177,398.702 39.5,399.5C 39.5,278.5 39.5,157.5 39.5,36.5 Z"/></g>
<g><path style="opacity:0.573" fill="#c4ced0" d="M 3.5,436.5 C 5.02694,436.427 6.02694,437.094 6.5,438.5C 4.97306,438.573 3.97306,437.906 3.5,436.5 Z"/></g>
</svg>
