<?xml version="1.0" encoding="UTF-8"?>
<!DOCTYPE svg PUBLIC "-//W3C//DTD SVG 1.1//EN" "http://www.w3.org/Graphics/SVG/1.1/DTD/svg11.dtd">
<svg xmlns="http://www.w3.org/2000/svg" version="1.1" width="751px" height="757px" style="shape-rendering:geometricPrecision; text-rendering:geometricPrecision; image-rendering:optimizeQuality; fill-rule:evenodd; clip-rule:evenodd" xmlns:xlink="http://www.w3.org/1999/xlink">
<g><path style="opacity:1" fill="#fed100" d="M 750.5,351.5 C 750.5,369.167 750.5,386.833 750.5,404.5C 738.734,525.836 683.067,622.002 583.5,693C 573.956,697.572 564.956,702.905 556.5,709C 457.659,761.11 354.992,769.776 248.5,735C 133.747,690.646 55.9135,610.479 15,494.5C 13.2557,486.273 10.9223,478.273 8,470.5C 5.32003,455.67 2.48669,441.336 -0.5,427.5C -0.5,394.5 -0.5,361.5 -0.5,328.5C 17.0038,218.804 70.6705,131.471 160.5,66.5C 261.002,0.894235 369.335,-15.6058 485.5,17C 595.54,54.4172 674.04,125.584 721,230.5C 733.906,262.457 742.906,295.457 748,329.5C 748.791,336.989 749.624,344.322 750.5,351.5 Z"/></g>
<g><path style="opacity:1" fill="#391a04" d="M 509.5,281.5 C 538.788,279.789 555.455,293.456 559.5,322.5C 555.997,350.173 540.33,363.673 512.5,363C 490.318,358.317 478.318,344.65 476.5,322C 478.594,301.087 489.594,287.587 509.5,281.5 Z"/></g>
<g><path style="opacity:1" fill="#391a04" d="M 214.5,285.5 C 237.99,283.507 253.824,293.507 262,315.5C 266.129,340.08 256.629,356.913 233.5,366C 214.803,369.992 199.637,364.492 188,349.5C 176.226,327.109 180.06,307.942 199.5,292C 204.367,289.226 209.367,287.059 214.5,285.5 Z"/></g>
<g><path style="opacity:1" fill="#a47d01" d="M 345.5,479.5 C 340.602,480.213 335.602,480.879 330.5,481.5C 335.056,479.558 340.056,478.892 345.5,479.5 Z"/></g>
<g><path style="opacity:1" fill="#3b1a05" d="M 432.5,483.5 C 435.071,485.231 438.071,486.231 441.5,486.5C 449.614,488.818 457.614,491.485 465.5,494.5C 468.46,496.396 471.793,497.396 475.5,497.5C 477.597,499.482 480.264,500.482 483.5,500.5C 483.5,501.5 483.5,502.5 483.5,503.5C 485.547,503.511 487.547,503.844 489.5,504.5C 517.376,519.523 540.543,539.856 559,565.5C 563.531,572.177 567.364,579.177 570.5,586.5C 570.5,587.5 570.5,588.5 570.5,589.5C 551.167,589.5 531.833,589.5 512.5,589.5C 402.346,586.951 292.012,585.618 181.5,585.5C 181.5,584.5 181.5,583.5 181.5,582.5C 183.275,579.361 184.775,576.028 186,572.5C 197.407,555.372 210.907,540.039 226.5,526.5C 234.463,521.416 242.13,516.083 249.5,510.5C 252.32,510.913 254.32,509.913 255.5,507.5C 273.302,497.139 292.302,489.805 312.5,485.5C 315.61,484.912 318.61,484.245 321.5,483.5C 323.988,481.612 326.988,480.945 330.5,481.5C 335.602,480.879 340.602,480.213 345.5,479.5C 366.66,478.503 387.993,478.169 409.5,478.5C 409.5,479.5 409.5,480.5 409.5,481.5C 417.217,481.698 424.883,482.365 432.5,483.5 Z"/></g>
<g><path style="opacity:1" fill="#765202" d="M 321.5,483.5 C 318.61,484.245 315.61,484.912 312.5,485.5C 314.988,483.612 317.988,482.945 321.5,483.5 Z"/></g>
<g><path style="opacity:1" fill="#9e7702" d="M 432.5,483.5 C 435.929,483.769 438.929,484.769 441.5,486.5C 438.071,486.231 435.071,485.231 432.5,483.5 Z"/></g>
<g><path style="opacity:1" fill="#c79e01" d="M 465.5,494.5 C 468.038,494.507 470.538,494.841 473,495.5C 474.376,495.684 475.209,496.351 475.5,497.5C 471.793,497.396 468.46,496.396 465.5,494.5 Z"/></g>
<g><path style="opacity:1" fill="#765106" d="M 255.5,507.5 C 254.32,509.913 252.32,510.913 249.5,510.5C 251.456,509.522 253.456,508.522 255.5,507.5 Z"/></g>
<g><path style="opacity:1" fill="#5d3a04" d="M 181.5,582.5 C 181.5,583.5 181.5,584.5 181.5,585.5C 292.012,585.618 402.346,586.951 512.5,589.5C 486.833,589.5 461.167,589.5 435.5,589.5C 432.167,589.5 428.833,589.5 425.5,589.5C 381.001,588.53 336.334,587.863 291.5,587.5C 254.5,587.5 217.5,587.5 180.5,587.5C 180.5,586.5 180.5,585.5 180.5,584.5C 180.328,583.508 180.662,582.842 181.5,582.5 Z"/></g>
<g><path style="opacity:1" fill="#a37c01" d="M 180.5,584.5 C 180.5,585.5 180.5,586.5 180.5,587.5C 217.5,587.5 254.5,587.5 291.5,587.5C 305.167,588.167 318.833,588.833 332.5,589.5C 281.329,589.44 230.329,588.773 179.5,587.5C 179.263,586.209 179.596,585.209 180.5,584.5 Z"/></g>
<g><path style="opacity:1" fill="#876202" d="M 291.5,587.5 C 336.334,587.863 381.001,588.53 425.5,589.5C 401.833,589.5 378.167,589.5 354.5,589.5C 347.167,589.5 339.833,589.5 332.5,589.5C 318.833,588.833 305.167,588.167 291.5,587.5 Z"/></g>
<g><path style="opacity:1" fill="#7a5502" d="M 570.5,586.5 C 571.434,587.568 571.768,588.901 571.5,590.5C 525.997,590.832 480.664,590.499 435.5,589.5C 461.167,589.5 486.833,589.5 512.5,589.5C 531.833,589.5 551.167,589.5 570.5,589.5C 570.5,588.5 570.5,587.5 570.5,586.5 Z"/></g>
<g><path style="opacity:1" fill="#caa000" d="M 179.5,587.5 C 230.329,588.773 281.329,589.44 332.5,589.5C 339.833,589.5 347.167,589.5 354.5,589.5C 375.167,590.167 395.833,590.833 416.5,591.5C 361.833,591.285 307.166,590.952 252.5,590.5C 227.491,590.5 202.824,589.833 178.5,588.5C 178.5,587.833 178.833,587.5 179.5,587.5 Z"/></g>
<g><path style="opacity:1" fill="#a67f01" d="M 354.5,589.5 C 378.167,589.5 401.833,589.5 425.5,589.5C 428.833,589.5 432.167,589.5 435.5,589.5C 480.664,590.499 525.997,590.832 571.5,590.5C 572.167,590.5 572.5,590.833 572.5,591.5C 572.5,591.833 572.5,592.167 572.5,592.5C 521.167,592.117 469.834,591.783 418.5,591.5C 417.833,591.5 417.167,591.5 416.5,591.5C 395.833,590.833 375.167,590.167 354.5,589.5 Z"/></g>
<g><path style="opacity:1" fill="#eec200" d="M 178.5,588.5 C 202.824,589.833 227.491,590.5 252.5,590.5C 307.166,590.952 361.833,591.285 416.5,591.5C 417.167,591.5 417.833,591.5 418.5,591.5C 469.827,593.384 521.16,593.717 572.5,592.5C 572.5,592.167 572.5,591.833 572.5,591.5C 574.104,592.287 574.771,593.62 574.5,595.5C 550.841,595.463 527.341,595.797 504,596.5C 480.017,594.507 456.017,594.174 432,595.5C 347.156,593.634 262.323,592.301 177.5,591.5C 177.263,590.209 177.596,589.209 178.5,588.5 Z"/></g>
<g><path style="opacity:1" fill="#cfa500" d="M 418.5,591.5 C 469.834,591.783 521.167,592.117 572.5,592.5C 521.16,593.717 469.827,593.384 418.5,591.5 Z"/></g>
</svg>
