<?xml version="1.0" encoding="UTF-8"?>
<!DOCTYPE svg PUBLIC "-//W3C//DTD SVG 1.1//EN" "http://www.w3.org/Graphics/SVG/1.1/DTD/svg11.dtd">
<svg xmlns="http://www.w3.org/2000/svg" version="1.1" width="751px" height="754px" style="shape-rendering:geometricPrecision; text-rendering:geometricPrecision; image-rendering:optimizeQuality; fill-rule:evenodd; clip-rule:evenodd" xmlns:xlink="http://www.w3.org/1999/xlink">
<g><path style="opacity:1" fill="#fed100" d="M 750.5,337.5 C 750.5,364.5 750.5,391.5 750.5,418.5C 732.879,546.854 668.545,643.687 557.5,709C 515.44,731.965 470.773,746.798 423.5,753.5C 391.167,753.5 358.833,753.5 326.5,753.5C 217.364,736.449 130.364,683.449 65.5,594.5C 29.4475,540.848 7.44749,482.182 -0.5,418.5C -0.5,391.5 -0.5,364.5 -0.5,337.5C 17.0047,212.539 79.3381,117.039 186.5,51C 269.299,4.59034 357.632,-9.74299 451.5,8C 578.279,38.8092 668.446,112.976 722,230.5C 726.337,242.178 730.67,253.844 735,265.5C 736.545,272.686 738.545,279.686 741,286.5C 744.2,303.729 747.367,320.729 750.5,337.5 Z"/></g>
<g><path style="opacity:1" fill="#3b1a05" d="M 512.5,280.5 C 546.642,281.464 562.142,298.797 559,332.5C 551.002,355.426 534.835,365.593 510.5,363C 486.956,355.441 476.123,339.274 478,314.5C 482.782,296.217 494.282,284.883 512.5,280.5 Z"/></g>
<g><path style="opacity:1" fill="#3a1a05" d="M 213.5,285.5 C 239.063,282.685 255.897,293.351 264,317.5C 265.334,352.499 248.501,368.999 213.5,367C 189.78,358.93 179.613,342.43 183,317.5C 187.566,301.435 197.733,290.768 213.5,285.5 Z"/></g>
<g><path style="opacity:1" fill="#f2c600" d="M 570.5,504.5 C 500.165,504.401 429.832,504.068 359.5,503.5C 315.337,502.42 271.004,501.754 226.5,501.5C 209.153,501.5 192.153,502.167 175.5,503.5C 174.596,502.791 174.263,501.791 174.5,500.5C 306.676,500.66 438.676,501.993 570.5,504.5 Z"/></g>
<g><path style="opacity:1" fill="#e1b600" d="M 359.5,503.5 C 334.5,503.5 309.5,503.5 284.5,503.5C 248.833,503.5 213.167,503.5 177.5,503.5C 177.167,503.5 176.833,503.5 176.5,503.5C 176.167,503.5 175.833,503.5 175.5,503.5C 192.153,502.167 209.153,501.5 226.5,501.5C 271.004,501.754 315.337,502.42 359.5,503.5 Z"/></g>
<g><path style="opacity:1" fill="#cea401" d="M 284.5,503.5 C 309.5,503.5 334.5,503.5 359.5,503.5C 429.832,504.068 500.165,504.401 570.5,504.5C 570.672,505.492 570.338,506.158 569.5,506.5C 501.164,506.607 432.83,506.273 364.5,505.5C 337.833,504.833 311.167,504.167 284.5,503.5 Z"/></g>
<g><path style="opacity:1" fill="#b28a02" d="M 177.5,503.5 C 213.167,503.5 248.833,503.5 284.5,503.5C 311.167,504.167 337.833,504.833 364.5,505.5C 301.994,505.621 239.661,504.955 177.5,503.5 Z"/></g>
<g><path style="opacity:1" fill="#8d6802" d="M 176.5,503.5 C 176.833,503.5 177.167,503.5 177.5,503.5C 239.661,504.955 301.994,505.621 364.5,505.5C 432.83,506.273 501.164,506.607 569.5,506.5C 569.88,508.698 569.213,510.365 567.5,511.5C 567.5,510.833 567.5,510.167 567.5,509.5C 515.34,508.038 463.007,507.372 410.5,507.5C 405.833,507.5 401.167,507.5 396.5,507.5C 323.668,506.494 250.668,505.827 177.5,505.5C 176.662,505.158 176.328,504.492 176.5,503.5 Z"/></g>
<g><path style="opacity:1" fill="#644204" d="M 177.5,505.5 C 250.668,505.827 323.668,506.494 396.5,507.5C 323.831,507.592 251.164,507.258 178.5,506.5C 178.5,507.5 178.5,508.5 178.5,509.5C 177.566,508.432 177.232,507.099 177.5,505.5 Z"/></g>
<g><path style="opacity:1" fill="#3b1b05" d="M 396.5,507.5 C 401.167,507.5 405.833,507.5 410.5,507.5C 413.641,508.321 416.975,508.821 420.5,509C 469.499,509.5 518.499,509.667 567.5,509.5C 567.5,510.167 567.5,510.833 567.5,511.5C 554.501,536.168 536.835,556.835 514.5,573.5C 513.292,574.234 511.959,574.567 510.5,574.5C 510.719,575.675 510.386,576.675 509.5,577.5C 505.911,579.23 502.578,581.23 499.5,583.5C 494.012,587.08 488.345,590.413 482.5,593.5C 478.764,593.541 475.764,594.874 473.5,597.5C 472.5,598.167 471.5,598.833 470.5,599.5C 466.909,599.945 463.576,600.945 460.5,602.5C 446.953,607.894 432.953,611.894 418.5,614.5C 413.056,613.892 408.056,614.558 403.5,616.5C 358.438,621.063 315.105,614.73 273.5,597.5C 265.512,593.812 257.846,589.645 250.5,585C 248.564,584.187 246.564,583.687 244.5,583.5C 244.5,582.5 244.5,581.5 244.5,580.5C 242.04,580.301 239.707,579.635 237.5,578.5C 231.143,573.424 224.81,568.257 218.5,563C 217.663,561.989 217.33,560.822 217.5,559.5C 215.567,559.271 213.9,558.438 212.5,557C 201.922,546.082 192.422,534.249 184,521.5C 182.637,517.225 180.803,513.225 178.5,509.5C 178.5,508.5 178.5,507.5 178.5,506.5C 251.164,507.258 323.831,507.592 396.5,507.5 Z"/></g>
<g><path style="opacity:1" fill="#553305" d="M 410.5,507.5 C 463.007,507.372 515.34,508.038 567.5,509.5C 518.499,509.667 469.499,509.5 420.5,509C 416.975,508.821 413.641,508.321 410.5,507.5 Z"/></g>
<g><path style="opacity:1" fill="#b38b02" d="M 514.5,573.5 C 514.5,574.5 514.5,575.5 514.5,576.5C 509.588,578.995 504.588,581.329 499.5,583.5C 502.578,581.23 505.911,579.23 509.5,577.5C 510.386,576.675 510.719,575.675 510.5,574.5C 511.959,574.567 513.292,574.234 514.5,573.5 Z"/></g>
<g><path style="opacity:1" fill="#775304" d="M 482.5,593.5 C 479.925,595.575 476.925,596.909 473.5,597.5C 475.764,594.874 478.764,593.541 482.5,593.5 Z"/></g>
<g><path style="opacity:1" fill="#c49b02" d="M 470.5,599.5 C 470.38,600.586 469.713,601.253 468.5,601.5C 465.885,602.269 463.219,602.603 460.5,602.5C 463.576,600.945 466.909,599.945 470.5,599.5 Z"/></g>
<g><path style="opacity:1" fill="#8f6903" d="M 418.5,614.5 C 413.602,615.213 408.602,615.879 403.5,616.5C 408.056,614.558 413.056,613.892 418.5,614.5 Z"/></g>
</svg>
