<?xml version="1.0" encoding="UTF-8"?>
<!DOCTYPE svg PUBLIC "-//W3C//DTD SVG 1.1//EN" "http://www.w3.org/Graphics/SVG/1.1/DTD/svg11.dtd">
<svg xmlns="http://www.w3.org/2000/svg" version="1.1" width="753px" height="750px" style="shape-rendering:geometricPrecision; text-rendering:geometricPrecision; image-rendering:optimizeQuality; fill-rule:evenodd; clip-rule:evenodd" xmlns:xlink="http://www.w3.org/1999/xlink">
<g><path style="opacity:1" fill="#fed100" d="M 329.5,-0.5 C 361.833,-0.5 394.167,-0.5 426.5,-0.5C 555.51,20.2909 651.177,87.7909 713.5,202C 717.082,210.826 720.915,218.992 725,226.5C 738.03,257.951 746.697,290.617 751,324.5C 751.383,325.056 751.883,325.389 752.5,325.5C 752.5,358.167 752.5,390.833 752.5,423.5C 746.546,460.715 735.879,496.715 720.5,531.5C 675.62,625.563 604.287,691.73 506.5,730C 480.321,738.866 453.654,745.366 426.5,749.5C 394.167,749.5 361.833,749.5 329.5,749.5C 220.364,732.449 133.364,679.449 68.5,590.5C 11.8979,506.141 -9.10209,413.808 5.5,313.5C 25.0909,208.057 78.0909,124.39 164.5,62.5C 174.667,56.5841 184.667,50.4174 194.5,44C 205.167,38.6667 215.833,33.3333 226.5,28C 259.658,13.9625 293.991,4.46252 329.5,-0.5 Z"/></g>
<g><path style="opacity:1" fill="#3a1a05" d="M 513.5,277.5 C 542.555,275.722 559.221,289.222 563.5,318C 560.231,345.938 544.564,359.605 516.5,359C 489.98,352.467 478.48,335.633 482,308.5C 487.12,292.545 497.62,282.212 513.5,277.5 Z"/></g>
<g><path style="opacity:1" fill="#3a1a05" d="M 218.5,281.5 C 242.015,279.541 257.848,289.541 266,311.5C 270.118,336.104 260.618,352.937 237.5,362C 218.803,365.992 203.637,360.492 192,345.5C 181.028,324.83 183.861,306.33 200.5,290C 206.208,286.31 212.208,283.477 218.5,281.5 Z"/></g>
<g><path style="opacity:1" fill="#3a1a05" d="M 182.5,487.5 C 314.834,487.333 447.167,487.5 579.5,488C 580.485,497.417 580.818,506.917 580.5,516.5C 447.83,517.534 315.163,517.534 182.5,516.5C 182.5,506.833 182.5,497.167 182.5,487.5 Z"/></g>
</svg>
